<svg width="45" height="45" viewBox="0 0 45 45" fill="none" xmlns="http://www.w3.org/2000/svg">
<g id="bag">
<circle id="Ellipse 3" cx="22.5" cy="22.5" r="22.5" fill="#F1F1F1"/>
<g id="Shopping bag" clip-path="url(#clip0_1_44)">
<g id="Group">
<path id="Vector" d="M31.25 13.75H28.3333C28.3333 10.5271 25.7229 7.91666 22.5 7.91666C19.2771 7.91666 16.6666 10.5271 16.6666 13.75H13.75C12.1458 13.75 10.8333 15.0625 10.8333 16.6667V34.1667C10.8333 35.7708 12.1458 37.0833 13.75 37.0833H31.25C32.8541 37.0833 34.1666 35.7708 34.1666 34.1667V16.6667C34.1666 15.0625 32.8541 13.75 31.25 13.75ZM22.5 10.8333C24.1041 10.8333 25.4166 12.1458 25.4166 13.75H19.5833C19.5833 12.1458 20.8958 10.8333 22.5 10.8333ZM31.25 34.1667H13.75V16.6667H16.6666V19.5833C16.6666 20.3854 17.3229 21.0417 18.125 21.0417C18.9271 21.0417 19.5833 20.3854 19.5833 19.5833V16.6667H25.4166V19.5833C25.4166 20.3854 26.0729 21.0417 26.875 21.0417C27.6771 21.0417 28.3333 20.3854 28.3333 19.5833V16.6667H31.25V34.1667Z" fill="#2C2C2C"/>
</g>
</g>
</g>
<defs>
<clipPath id="clip0_1_44">
<rect width="35" height="35" fill="white" transform="translate(5 5)"/>
</clipPath>
</defs>
</svg>
