<svg width="334" height="156" viewBox="0 0 334 156" fill="none" xmlns="http://www.w3.org/2000/svg">
<g filter="url(#filter0_d_1_240)">
<path d="M271.481 35H54C49.5817 35 46 38.5817 46 43V83C46 87.4183 49.5817 91 54 91H246.203C248.947 91 251.5 89.5935 252.966 87.2737L278.244 47.2737C281.61 41.9468 277.782 35 271.481 35Z" fill="#FF2B2B"/>
</g>
<path d="M94.7881 58.335L90.749 71H87.0107L92.8008 55.3594H95.1641L94.7881 58.335ZM98.1396 71L94.0898 58.335L93.6709 55.3594H96.0664L101.878 71H98.1396ZM97.9678 65.1777V67.8848H89.8145V65.1777H97.9678ZM110.653 68.4004V54.5H114.026V71H110.997L110.653 68.4004ZM103.413 65.3281V65.1025C103.413 64.2217 103.51 63.4196 103.703 62.6963C103.904 61.9658 104.194 61.3392 104.573 60.8164C104.96 60.2865 105.436 59.8783 106.002 59.5918C106.568 59.3053 107.216 59.1621 107.946 59.1621C108.62 59.1621 109.207 59.3125 109.708 59.6133C110.209 59.9069 110.636 60.3223 110.986 60.8594C111.345 61.3893 111.635 62.016 111.857 62.7393C112.079 63.4554 112.247 64.2324 112.361 65.0703V65.457C112.254 66.2591 112.086 67.0075 111.857 67.7021C111.635 68.3968 111.345 69.0091 110.986 69.5391C110.636 70.0618 110.206 70.4736 109.697 70.7744C109.196 71.068 108.605 71.2148 107.925 71.2148C107.194 71.2148 106.546 71.068 105.981 70.7744C105.422 70.4808 104.953 70.069 104.573 69.5391C104.194 69.0091 103.904 68.3861 103.703 67.6699C103.51 66.9538 103.413 66.1732 103.413 65.3281ZM106.765 65.1025V65.3281C106.765 65.7865 106.797 66.2126 106.861 66.6064C106.933 67.0003 107.048 67.3477 107.205 67.6484C107.363 67.9492 107.57 68.1855 107.828 68.3574C108.086 68.5221 108.401 68.6045 108.774 68.6045C109.275 68.6045 109.687 68.4899 110.009 68.2607C110.331 68.0244 110.575 67.6986 110.739 67.2832C110.904 66.8678 110.99 66.3844 110.997 65.833V64.7051C110.997 64.2467 110.951 63.835 110.858 63.4697C110.764 63.1045 110.625 62.7965 110.439 62.5459C110.26 62.2952 110.034 62.1055 109.762 61.9766C109.49 61.8405 109.167 61.7725 108.795 61.7725C108.43 61.7725 108.118 61.8584 107.86 62.0303C107.603 62.195 107.391 62.4277 107.227 62.7285C107.069 63.0293 106.951 63.3838 106.872 63.792C106.801 64.193 106.765 64.6299 106.765 65.1025ZM123.908 68.4004V54.5H127.281V71H124.252L123.908 68.4004ZM116.668 65.3281V65.1025C116.668 64.2217 116.765 63.4196 116.958 62.6963C117.159 61.9658 117.449 61.3392 117.828 60.8164C118.215 60.2865 118.691 59.8783 119.257 59.5918C119.823 59.3053 120.471 59.1621 121.201 59.1621C121.875 59.1621 122.462 59.3125 122.963 59.6133C123.464 59.9069 123.891 60.3223 124.241 60.8594C124.6 61.3893 124.89 62.016 125.112 62.7393C125.334 63.4554 125.502 64.2324 125.616 65.0703V65.457C125.509 66.2591 125.341 67.0075 125.112 67.7021C124.89 68.3968 124.6 69.0091 124.241 69.5391C123.891 70.0618 123.461 70.4736 122.952 70.7744C122.451 71.068 121.86 71.2148 121.18 71.2148C120.449 71.2148 119.801 71.068 119.236 70.7744C118.677 70.4808 118.208 70.069 117.828 69.5391C117.449 69.0091 117.159 68.3861 116.958 67.6699C116.765 66.9538 116.668 66.1732 116.668 65.3281ZM120.02 65.1025V65.3281C120.02 65.7865 120.052 66.2126 120.116 66.6064C120.188 67.0003 120.303 67.3477 120.46 67.6484C120.618 67.9492 120.825 68.1855 121.083 68.3574C121.341 68.5221 121.656 68.6045 122.029 68.6045C122.53 68.6045 122.942 68.4899 123.264 68.2607C123.586 68.0244 123.83 67.6986 123.994 67.2832C124.159 66.8678 124.245 66.3844 124.252 65.833V64.7051C124.252 64.2467 124.206 63.835 124.113 63.4697C124.019 63.1045 123.88 62.7965 123.694 62.5459C123.515 62.2952 123.289 62.1055 123.017 61.9766C122.745 61.8405 122.422 61.7725 122.05 61.7725C121.685 61.7725 121.373 61.8584 121.115 62.0303C120.858 62.195 120.646 62.4277 120.482 62.7285C120.324 63.0293 120.206 63.3838 120.127 63.792C120.056 64.193 120.02 64.6299 120.02 65.1025ZM143.329 55.3594V71H139.838V55.3594H143.329ZM148.088 55.3594V58.0771H135.176V55.3594H148.088ZM147.98 65.3066V65.0811C147.98 64.2288 148.102 63.4447 148.345 62.7285C148.589 62.0052 148.947 61.3786 149.419 60.8486C149.892 60.3187 150.472 59.9069 151.16 59.6133C151.847 59.3125 152.635 59.1621 153.523 59.1621C154.425 59.1621 155.22 59.3125 155.908 59.6133C156.602 59.9069 157.186 60.3187 157.659 60.8486C158.131 61.3786 158.489 62.0052 158.733 62.7285C158.976 63.4447 159.098 64.2288 159.098 65.0811V65.3066C159.098 66.1517 158.976 66.9359 158.733 67.6592C158.489 68.3753 158.131 69.002 157.659 69.5391C157.186 70.069 156.606 70.4808 155.918 70.7744C155.231 71.068 154.44 71.2148 153.544 71.2148C152.656 71.2148 151.865 71.068 151.17 70.7744C150.476 70.4808 149.892 70.069 149.419 69.5391C148.947 69.002 148.589 68.3753 148.345 67.6592C148.102 66.9359 147.98 66.1517 147.98 65.3066ZM151.342 65.0811V65.3066C151.342 65.765 151.378 66.1947 151.45 66.5957C151.528 66.9967 151.654 67.3477 151.826 67.6484C151.998 67.9492 152.223 68.1855 152.502 68.3574C152.789 68.5221 153.136 68.6045 153.544 68.6045C153.953 68.6045 154.296 68.5221 154.576 68.3574C154.855 68.1855 155.081 67.9492 155.252 67.6484C155.424 67.3477 155.546 66.9967 155.618 66.5957C155.696 66.1947 155.736 65.765 155.736 65.3066V65.0811C155.736 64.6299 155.696 64.2074 155.618 63.8135C155.546 63.4124 155.424 63.0579 155.252 62.75C155.081 62.4421 154.851 62.2021 154.565 62.0303C154.286 61.8584 153.938 61.7725 153.523 61.7725C153.122 61.7725 152.782 61.8584 152.502 62.0303C152.223 62.2021 151.998 62.4421 151.826 62.75C151.654 63.0579 151.528 63.4124 151.45 63.8135C151.378 64.2074 151.342 64.6299 151.342 65.0811ZM177.261 65.7578H180.742C180.685 66.832 180.391 67.7809 179.861 68.6045C179.338 69.4209 178.611 70.0618 177.68 70.5273C176.749 70.9857 175.643 71.2148 174.361 71.2148C173.337 71.2148 172.42 71.0394 171.611 70.6885C170.802 70.3376 170.114 69.8363 169.549 69.1846C168.99 68.5257 168.56 67.7344 168.259 66.8105C167.966 65.8796 167.819 64.8304 167.819 63.6631V62.707C167.819 61.5397 167.973 60.4906 168.281 59.5596C168.589 58.6286 169.029 57.8337 169.602 57.1748C170.175 56.516 170.863 56.0111 171.665 55.6602C172.467 55.3092 173.362 55.1338 174.35 55.1338C175.682 55.1338 176.807 55.3737 177.723 55.8535C178.64 56.3333 179.349 56.9922 179.85 57.8301C180.359 58.668 180.663 59.624 180.763 60.6982H177.272C177.244 60.0895 177.129 59.5775 176.928 59.1621C176.728 58.7396 176.42 58.4209 176.005 58.2061C175.589 57.9912 175.038 57.8838 174.35 57.8838C173.849 57.8838 173.409 57.9769 173.029 58.1631C172.657 58.3493 172.345 58.6393 172.094 59.0332C171.851 59.4271 171.668 59.9284 171.547 60.5371C171.425 61.1387 171.364 61.8548 171.364 62.6855V63.6631C171.364 64.4867 171.418 65.1992 171.525 65.8008C171.633 66.4023 171.804 66.9001 172.041 67.2939C172.284 67.6878 172.596 67.9814 172.975 68.1748C173.355 68.3682 173.817 68.4648 174.361 68.4648C174.984 68.4648 175.503 68.3682 175.919 68.1748C176.334 67.9743 176.653 67.6735 176.875 67.2725C177.097 66.8714 177.226 66.3665 177.261 65.7578ZM189.55 68.2285V63.2441C189.55 62.8932 189.496 62.5924 189.389 62.3418C189.281 62.0911 189.113 61.8942 188.884 61.751C188.654 61.6077 188.357 61.5361 187.992 61.5361C187.684 61.5361 187.416 61.5898 187.186 61.6973C186.964 61.8047 186.792 61.9587 186.671 62.1592C186.556 62.3597 186.499 62.6068 186.499 62.9004H183.147C183.147 62.3776 183.265 61.8906 183.502 61.4395C183.738 60.9883 184.075 60.5908 184.512 60.2471C184.956 59.9033 185.486 59.6383 186.101 59.4521C186.717 59.2588 187.408 59.1621 188.175 59.1621C189.084 59.1621 189.893 59.3161 190.602 59.624C191.319 59.9248 191.884 60.3796 192.3 60.9883C192.715 61.5898 192.923 62.349 192.923 63.2656V68.1318C192.923 68.8337 192.962 69.3851 193.041 69.7861C193.127 70.18 193.249 70.5238 193.406 70.8174V71H190.022C189.865 70.6634 189.747 70.248 189.668 69.7539C189.589 69.2526 189.55 68.7441 189.55 68.2285ZM189.969 63.9102L189.99 65.7578H188.325C187.953 65.7578 187.63 65.8044 187.358 65.8975C187.093 65.9906 186.878 66.1195 186.714 66.2842C186.549 66.4417 186.427 66.6279 186.348 66.8428C186.277 67.0505 186.241 67.2796 186.241 67.5303C186.241 67.7666 186.298 67.9814 186.413 68.1748C186.528 68.361 186.685 68.5078 186.886 68.6152C187.086 68.7227 187.319 68.7764 187.584 68.7764C188.021 68.7764 188.393 68.6904 188.701 68.5186C189.016 68.3467 189.26 68.139 189.431 67.8955C189.603 67.6449 189.689 67.4121 189.689 67.1973L190.495 68.5938C190.366 68.8802 190.209 69.1774 190.022 69.4854C189.836 69.7861 189.6 70.069 189.313 70.334C189.027 70.5918 188.68 70.8031 188.271 70.9678C187.87 71.1325 187.387 71.2148 186.821 71.2148C186.091 71.2148 185.428 71.068 184.834 70.7744C184.239 70.4736 183.763 70.0618 183.405 69.5391C183.054 69.0163 182.879 68.4147 182.879 67.7344C182.879 67.1257 182.99 66.585 183.212 66.1123C183.434 65.6396 183.767 65.2386 184.211 64.9092C184.662 64.5798 185.228 64.3327 185.908 64.168C186.588 63.9961 187.383 63.9102 188.293 63.9102H189.969ZM199.367 62.084V71H196.016V59.377H199.163L199.367 62.084ZM202.837 59.291L202.783 62.417C202.64 62.3955 202.454 62.3776 202.225 62.3633C201.995 62.3418 201.798 62.3311 201.634 62.3311C201.204 62.3311 200.832 62.3848 200.517 62.4922C200.209 62.5924 199.951 62.7428 199.743 62.9434C199.543 63.1439 199.392 63.3945 199.292 63.6953C199.192 63.9889 199.142 64.3291 199.142 64.7158L198.508 64.4043C198.508 63.638 198.583 62.9362 198.733 62.2988C198.884 61.6615 199.102 61.11 199.389 60.6445C199.675 60.1719 200.026 59.8066 200.441 59.5488C200.857 59.291 201.329 59.1621 201.859 59.1621C202.031 59.1621 202.207 59.1729 202.386 59.1943C202.565 59.2158 202.715 59.248 202.837 59.291ZM211.537 59.377V61.7295H204.641V59.377H211.537ZM206.22 56.498H209.582V67.3584C209.582 67.6807 209.621 67.9277 209.7 68.0996C209.779 68.2715 209.908 68.3932 210.087 68.4648C210.266 68.5293 210.495 68.5615 210.774 68.5615C210.975 68.5615 211.147 68.5544 211.29 68.54C211.433 68.5257 211.566 68.5078 211.688 68.4863V70.9141C211.401 71.0072 211.097 71.0788 210.774 71.1289C210.452 71.1862 210.101 71.2148 209.722 71.2148C208.998 71.2148 208.372 71.0967 207.842 70.8604C207.319 70.624 206.918 70.2516 206.639 69.7432C206.359 69.2275 206.22 68.5579 206.22 67.7344V56.498Z" fill="white"/>
<defs>
<filter id="filter0_d_1_240" x="0" y="0" width="333.494" height="156" filterUnits="userSpaceOnUse" color-interpolation-filters="sRGB">
<feFlood flood-opacity="0" result="BackgroundImageFix"/>
<feColorMatrix in="SourceAlpha" type="matrix" values="0 0 0 0 0 0 0 0 0 0 0 0 0 0 0 0 0 0 127 0" result="hardAlpha"/>
<feOffset dx="4" dy="15"/>
<feGaussianBlur stdDeviation="25"/>
<feComposite in2="hardAlpha" operator="out"/>
<feColorMatrix type="matrix" values="0 0 0 0 0 0 0 0 0 0 0 0 0 0 0 0 0 0 0.25 0"/>
<feBlend mode="normal" in2="BackgroundImageFix" result="effect1_dropShadow_1_240"/>
<feBlend mode="normal" in="SourceGraphic" in2="effect1_dropShadow_1_240" result="shape"/>
</filter>
</defs>
</svg>
