<svg width="45" height="45" viewBox="0 0 45 45" fill="none" xmlns="http://www.w3.org/2000/svg">
<g id="person">
<circle id="Ellipse 2" cx="22.5" cy="22.5" r="22.5" fill="#F1F1F1"/>
<g id="Person" clip-path="url(#clip0_1_43)">
<path id="Vector" d="M22.5 13.75C24.1041 13.75 25.4166 15.0625 25.4166 16.6667C25.4166 18.2708 24.1041 19.5833 22.5 19.5833C20.8958 19.5833 19.5833 18.2708 19.5833 16.6667C19.5833 15.0625 20.8958 13.75 22.5 13.75ZM22.5 28.3333C26.4375 28.3333 30.9583 30.2146 31.25 31.25H13.75C14.0854 30.2 18.5771 28.3333 22.5 28.3333ZM22.5 10.8333C19.2771 10.8333 16.6666 13.4438 16.6666 16.6667C16.6666 19.8896 19.2771 22.5 22.5 22.5C25.7229 22.5 28.3333 19.8896 28.3333 16.6667C28.3333 13.4438 25.7229 10.8333 22.5 10.8333ZM22.5 25.4167C18.6062 25.4167 10.8333 27.3708 10.8333 31.25V34.1667H34.1666V31.25C34.1666 27.3708 26.3937 25.4167 22.5 25.4167Z" fill="#2C2C2C"/>
</g>
</g>
<defs>
<clipPath id="clip0_1_43">
<rect width="35" height="35" fill="white" transform="translate(5 5)"/>
</clipPath>
</defs>
</svg>
