<svg width="284" height="106" viewBox="0 0 284 106" fill="none" xmlns="http://www.w3.org/2000/svg">
<g filter="url(#filter0_d_1_71)">
<path d="M29.5191 65.9999L247 66C251.418 66 255 62.4182 255 58L255 18C255 13.5817 251.418 9.99997 247 9.99997L54.7967 9.99995C52.0526 9.99995 49.4999 11.4065 48.0339 13.7263L22.7562 53.7263C19.39 59.0531 23.2177 65.9999 29.5191 65.9999Z" fill="#545454"/>
</g>
<path d="M93.541 41.2432H89.5234L89.502 38.9014H92.8213C93.4085 38.9014 93.8848 38.8298 94.25 38.6865C94.6224 38.5433 94.8945 38.3356 95.0664 38.0635C95.2383 37.7842 95.3242 37.4404 95.3242 37.0322C95.3242 36.5667 95.2383 36.1908 95.0664 35.9043C94.8945 35.6178 94.6224 35.4102 94.25 35.2812C93.8848 35.1452 93.4121 35.0771 92.832 35.0771H90.791V48H87.2891V32.3594H92.832C93.7702 32.3594 94.6081 32.4453 95.3457 32.6172C96.0833 32.7891 96.71 33.054 97.2256 33.4121C97.7484 33.7702 98.1458 34.2178 98.418 34.7549C98.6901 35.292 98.8262 35.9258 98.8262 36.6562C98.8262 37.2936 98.6829 37.888 98.3965 38.4395C98.1172 38.9909 97.666 39.4385 97.043 39.7822C96.4199 40.126 95.5856 40.3122 94.54 40.3408L93.541 41.2432ZM93.4014 48H88.6318L89.8994 45.293H93.4014C93.9385 45.293 94.3753 45.207 94.7119 45.0352C95.0485 44.8633 95.2956 44.6305 95.4531 44.3369C95.6107 44.0433 95.6895 43.7139 95.6895 43.3486C95.6895 42.9189 95.6143 42.5465 95.4639 42.2314C95.3206 41.9163 95.0915 41.6729 94.7764 41.501C94.4684 41.3291 94.0566 41.2432 93.541 41.2432H90.4043L90.4258 38.9014H94.2607L95.0771 39.8252C96.0726 39.8037 96.8675 39.9648 97.4619 40.3086C98.0635 40.6452 98.4967 41.0892 98.7617 41.6406C99.0267 42.1921 99.1592 42.7757 99.1592 43.3916C99.1592 44.4085 98.9408 45.2607 98.5039 45.9482C98.0671 46.6286 97.4189 47.1406 96.5596 47.4844C95.7074 47.8281 94.6546 48 93.4014 48ZM101.651 42.3066V42.0811C101.651 41.2288 101.772 40.4447 102.016 39.7285C102.259 39.0052 102.617 38.3786 103.09 37.8486C103.563 37.3187 104.143 36.9069 104.83 36.6133C105.518 36.3125 106.305 36.1621 107.193 36.1621C108.096 36.1621 108.891 36.3125 109.578 36.6133C110.273 36.9069 110.857 37.3187 111.329 37.8486C111.802 38.3786 112.16 39.0052 112.403 39.7285C112.647 40.4447 112.769 41.2288 112.769 42.0811V42.3066C112.769 43.1517 112.647 43.9359 112.403 44.6592C112.16 45.3753 111.802 46.002 111.329 46.5391C110.857 47.069 110.276 47.4808 109.589 47.7744C108.901 48.068 108.11 48.2148 107.215 48.2148C106.327 48.2148 105.536 48.068 104.841 47.7744C104.146 47.4808 103.563 47.069 103.09 46.5391C102.617 46.002 102.259 45.3753 102.016 44.6592C101.772 43.9359 101.651 43.1517 101.651 42.3066ZM105.013 42.0811V42.3066C105.013 42.765 105.049 43.1947 105.12 43.5957C105.199 43.9967 105.324 44.3477 105.496 44.6484C105.668 44.9492 105.894 45.1855 106.173 45.3574C106.459 45.5221 106.807 45.6045 107.215 45.6045C107.623 45.6045 107.967 45.5221 108.246 45.3574C108.526 45.1855 108.751 44.9492 108.923 44.6484C109.095 44.3477 109.217 43.9967 109.288 43.5957C109.367 43.1947 109.406 42.765 109.406 42.3066V42.0811C109.406 41.6299 109.367 41.2074 109.288 40.8135C109.217 40.4124 109.095 40.0579 108.923 39.75C108.751 39.4421 108.522 39.2021 108.235 39.0303C107.956 38.8584 107.609 38.7725 107.193 38.7725C106.792 38.7725 106.452 38.8584 106.173 39.0303C105.894 39.2021 105.668 39.4421 105.496 39.75C105.324 40.0579 105.199 40.4124 105.12 40.8135C105.049 41.2074 105.013 41.6299 105.013 42.0811ZM114.927 42.3066V42.0811C114.927 41.2288 115.049 40.4447 115.292 39.7285C115.536 39.0052 115.894 38.3786 116.366 37.8486C116.839 37.3187 117.419 36.9069 118.107 36.6133C118.794 36.3125 119.582 36.1621 120.47 36.1621C121.372 36.1621 122.167 36.3125 122.855 36.6133C123.549 36.9069 124.133 37.3187 124.606 37.8486C125.078 38.3786 125.436 39.0052 125.68 39.7285C125.923 40.4447 126.045 41.2288 126.045 42.0811V42.3066C126.045 43.1517 125.923 43.9359 125.68 44.6592C125.436 45.3753 125.078 46.002 124.606 46.5391C124.133 47.069 123.553 47.4808 122.865 47.7744C122.178 48.068 121.387 48.2148 120.491 48.2148C119.603 48.2148 118.812 48.068 118.117 47.7744C117.423 47.4808 116.839 47.069 116.366 46.5391C115.894 46.002 115.536 45.3753 115.292 44.6592C115.049 43.9359 114.927 43.1517 114.927 42.3066ZM118.289 42.0811V42.3066C118.289 42.765 118.325 43.1947 118.397 43.5957C118.475 43.9967 118.601 44.3477 118.773 44.6484C118.945 44.9492 119.17 45.1855 119.449 45.3574C119.736 45.5221 120.083 45.6045 120.491 45.6045C120.9 45.6045 121.243 45.5221 121.523 45.3574C121.802 45.1855 122.028 44.9492 122.199 44.6484C122.371 44.3477 122.493 43.9967 122.565 43.5957C122.643 43.1947 122.683 42.765 122.683 42.3066V42.0811C122.683 41.6299 122.643 41.2074 122.565 40.8135C122.493 40.4124 122.371 40.0579 122.199 39.75C122.028 39.4421 121.798 39.2021 121.512 39.0303C121.233 38.8584 120.885 38.7725 120.47 38.7725C120.069 38.7725 119.729 38.8584 119.449 39.0303C119.17 39.2021 118.945 39.4421 118.773 39.75C118.601 40.0579 118.475 40.4124 118.397 40.8135C118.325 41.2074 118.289 41.6299 118.289 42.0811ZM132.06 31.4893V48H128.698V31.4893H132.06ZM139.44 36.377L134.38 42.2207L131.705 44.9062L130.363 42.6396L132.533 39.8359L135.401 36.377H139.44ZM135.895 48L132.619 42.6611L135.025 40.7812L139.741 48H135.895ZM153.983 45.2285V40.2441C153.983 39.8932 153.929 39.5924 153.822 39.3418C153.714 39.0911 153.546 38.8942 153.317 38.751C153.088 38.6077 152.791 38.5361 152.425 38.5361C152.117 38.5361 151.849 38.5898 151.62 38.6973C151.398 38.8047 151.226 38.9587 151.104 39.1592C150.99 39.3597 150.932 39.6068 150.932 39.9004H147.581C147.581 39.3776 147.699 38.8906 147.935 38.4395C148.171 37.9883 148.508 37.5908 148.945 37.2471C149.389 36.9033 149.919 36.6383 150.535 36.4521C151.151 36.2588 151.842 36.1621 152.608 36.1621C153.518 36.1621 154.327 36.3161 155.036 36.624C155.752 36.9248 156.318 37.3796 156.733 37.9883C157.148 38.5898 157.356 39.349 157.356 40.2656V45.1318C157.356 45.8337 157.395 46.3851 157.474 46.7861C157.56 47.18 157.682 47.5238 157.839 47.8174V48H154.456C154.298 47.6634 154.18 47.248 154.101 46.7539C154.022 46.2526 153.983 45.7441 153.983 45.2285ZM154.402 40.9102L154.423 42.7578H152.758C152.386 42.7578 152.064 42.8044 151.792 42.8975C151.527 42.9906 151.312 43.1195 151.147 43.2842C150.982 43.4417 150.861 43.6279 150.782 43.8428C150.71 44.0505 150.674 44.2796 150.674 44.5303C150.674 44.7666 150.732 44.9814 150.846 45.1748C150.961 45.361 151.118 45.5078 151.319 45.6152C151.519 45.7227 151.752 45.7764 152.017 45.7764C152.454 45.7764 152.826 45.6904 153.134 45.5186C153.449 45.3467 153.693 45.139 153.865 44.8955C154.037 44.6449 154.123 44.4121 154.123 44.1973L154.928 45.5938C154.799 45.8802 154.642 46.1774 154.456 46.4854C154.269 46.7861 154.033 47.069 153.747 47.334C153.46 47.5918 153.113 47.8031 152.705 47.9678C152.304 48.1325 151.82 48.2148 151.254 48.2148C150.524 48.2148 149.862 48.068 149.267 47.7744C148.673 47.4736 148.197 47.0618 147.838 46.5391C147.488 46.0163 147.312 45.4147 147.312 44.7344C147.312 44.1257 147.423 43.585 147.645 43.1123C147.867 42.6396 148.2 42.2386 148.644 41.9092C149.095 41.5798 149.661 41.3327 150.341 41.168C151.022 40.9961 151.817 40.9102 152.726 40.9102H154.402ZM173.65 32.3594V48H170.159V32.3594H173.65ZM178.409 32.3594V35.0771H165.497V32.3594H178.409ZM185.283 45.2285V40.2441C185.283 39.8932 185.229 39.5924 185.122 39.3418C185.015 39.0911 184.846 38.8942 184.617 38.751C184.388 38.6077 184.091 38.5361 183.726 38.5361C183.418 38.5361 183.149 38.5898 182.92 38.6973C182.698 38.8047 182.526 38.9587 182.404 39.1592C182.29 39.3597 182.232 39.6068 182.232 39.9004H178.881C178.881 39.3776 178.999 38.8906 179.235 38.4395C179.472 37.9883 179.808 37.5908 180.245 37.2471C180.689 36.9033 181.219 36.6383 181.835 36.4521C182.451 36.2588 183.142 36.1621 183.908 36.1621C184.818 36.1621 185.627 36.3161 186.336 36.624C187.052 36.9248 187.618 37.3796 188.033 37.9883C188.449 38.5898 188.656 39.349 188.656 40.2656V45.1318C188.656 45.8337 188.696 46.3851 188.774 46.7861C188.86 47.18 188.982 47.5238 189.14 47.8174V48H185.756C185.598 47.6634 185.48 47.248 185.401 46.7539C185.323 46.2526 185.283 45.7441 185.283 45.2285ZM185.702 40.9102L185.724 42.7578H184.059C183.686 42.7578 183.364 42.8044 183.092 42.8975C182.827 42.9906 182.612 43.1195 182.447 43.2842C182.283 43.4417 182.161 43.6279 182.082 43.8428C182.01 44.0505 181.975 44.2796 181.975 44.5303C181.975 44.7666 182.032 44.9814 182.146 45.1748C182.261 45.361 182.419 45.5078 182.619 45.6152C182.82 45.7227 183.052 45.7764 183.317 45.7764C183.754 45.7764 184.127 45.6904 184.435 45.5186C184.75 45.3467 184.993 45.139 185.165 44.8955C185.337 44.6449 185.423 44.4121 185.423 44.1973L186.228 45.5938C186.1 45.8802 185.942 46.1774 185.756 46.4854C185.57 46.7861 185.333 47.069 185.047 47.334C184.76 47.5918 184.413 47.8031 184.005 47.9678C183.604 48.1325 183.12 48.2148 182.555 48.2148C181.824 48.2148 181.162 48.068 180.567 47.7744C179.973 47.4736 179.497 47.0618 179.139 46.5391C178.788 46.0163 178.612 45.4147 178.612 44.7344C178.612 44.1257 178.723 43.585 178.945 43.1123C179.167 42.6396 179.5 42.2386 179.944 41.9092C180.395 41.5798 180.961 41.3327 181.642 41.168C182.322 40.9961 183.117 40.9102 184.026 40.9102H185.702ZM191.749 31.5H195.101V45.2393L194.757 48H191.749V31.5ZM202.352 42.0596V42.2852C202.352 43.166 202.259 43.9681 202.072 44.6914C201.893 45.4147 201.618 46.0413 201.245 46.5713C200.873 47.0941 200.404 47.4987 199.838 47.7852C199.272 48.0716 198.606 48.2148 197.84 48.2148C197.131 48.2148 196.522 48.068 196.014 47.7744C195.505 47.4736 195.079 47.0583 194.735 46.5283C194.392 45.9984 194.112 45.3789 193.898 44.6699C193.69 43.9609 193.529 43.1982 193.414 42.3818V41.9951C193.529 41.1787 193.69 40.416 193.898 39.707C194.112 38.998 194.392 38.3786 194.735 37.8486C195.079 37.3187 195.502 36.9069 196.003 36.6133C196.511 36.3125 197.117 36.1621 197.818 36.1621C198.592 36.1621 199.261 36.3089 199.827 36.6025C200.4 36.8962 200.873 37.3079 201.245 37.8379C201.618 38.3607 201.893 38.9837 202.072 39.707C202.259 40.4232 202.352 41.2074 202.352 42.0596ZM199 42.2852V42.0596C199 41.6156 198.968 41.1966 198.903 40.8027C198.846 40.4089 198.742 40.0615 198.592 39.7607C198.449 39.4528 198.245 39.2129 197.98 39.041C197.722 38.862 197.389 38.7725 196.981 38.7725C196.58 38.7725 196.239 38.8405 195.96 38.9766C195.681 39.1126 195.455 39.306 195.283 39.5566C195.111 39.8001 194.986 40.0973 194.907 40.4482C194.829 40.7992 194.786 41.1895 194.778 41.6191V42.7578C194.786 43.3307 194.861 43.832 195.004 44.2617C195.147 44.6914 195.38 45.0244 195.702 45.2607C196.024 45.4899 196.458 45.6045 197.002 45.6045C197.417 45.6045 197.754 45.5257 198.012 45.3682C198.277 45.2035 198.477 44.9743 198.613 44.6807C198.757 44.387 198.857 44.0361 198.914 43.6279C198.971 43.2197 199 42.7721 199 42.2852ZM208.549 31.5V48H205.187V31.5H208.549ZM217.325 48.2148C216.401 48.2148 215.574 48.068 214.843 47.7744C214.113 47.4808 213.493 47.0762 212.985 46.5605C212.483 46.0378 212.1 45.4362 211.835 44.7559C211.57 44.0755 211.438 43.3486 211.438 42.5752V42.167C211.438 41.3005 211.56 40.502 211.803 39.7715C212.047 39.041 212.401 38.4072 212.867 37.8701C213.339 37.3258 213.919 36.9069 214.607 36.6133C215.294 36.3125 216.078 36.1621 216.959 36.1621C217.783 36.1621 218.517 36.2982 219.161 36.5703C219.806 36.8353 220.35 37.2184 220.794 37.7197C221.238 38.2139 221.575 38.8118 221.804 39.5137C222.04 40.2083 222.159 40.9889 222.159 41.8555V43.2305H212.791V41.0713H218.871V40.8135C218.871 40.4053 218.796 40.0472 218.646 39.7393C218.503 39.4313 218.288 39.195 218.001 39.0303C217.722 38.8584 217.368 38.7725 216.938 38.7725C216.53 38.7725 216.189 38.8584 215.917 39.0303C215.645 39.2021 215.427 39.4456 215.262 39.7607C215.104 40.0687 214.99 40.4303 214.918 40.8457C214.847 41.2539 214.811 41.6943 214.811 42.167V42.5752C214.811 43.0264 214.872 43.4382 214.993 43.8105C215.115 44.1829 215.294 44.5016 215.531 44.7666C215.767 45.0316 216.053 45.2393 216.39 45.3896C216.727 45.54 217.11 45.6152 217.539 45.6152C218.069 45.6152 218.574 45.515 219.054 45.3145C219.534 45.1068 219.949 44.7845 220.3 44.3477L221.868 46.1416C221.632 46.4854 221.299 46.8184 220.869 47.1406C220.447 47.4557 219.938 47.7135 219.344 47.9141C218.75 48.1146 218.076 48.2148 217.325 48.2148Z" fill="white"/>
<defs>
<filter id="filter0_d_1_71" x="0.506149" y="-4.57764e-05" width="283.494" height="106" filterUnits="userSpaceOnUse" color-interpolation-filters="sRGB">
<feFlood flood-opacity="0" result="BackgroundImageFix"/>
<feColorMatrix in="SourceAlpha" type="matrix" values="0 0 0 0 0 0 0 0 0 0 0 0 0 0 0 0 0 0 127 0" result="hardAlpha"/>
<feOffset dx="4" dy="15"/>
<feGaussianBlur stdDeviation="12.5"/>
<feComposite in2="hardAlpha" operator="out"/>
<feColorMatrix type="matrix" values="0 0 0 0 0 0 0 0 0 0 0 0 0 0 0 0 0 0 0.25 0"/>
<feBlend mode="normal" in2="BackgroundImageFix" result="effect1_dropShadow_1_71"/>
<feBlend mode="normal" in="SourceGraphic" in2="effect1_dropShadow_1_71" result="shape"/>
</filter>
</defs>
</svg>
