<svg width="45" height="45" viewBox="0 0 45 45" fill="none" xmlns="http://www.w3.org/2000/svg">
<g id="search">
<circle id="Ellipse 1" cx="22.5" cy="22.5" r="22.5" fill="#F1F1F1"/>
<g id="Search" clip-path="url(#clip0_1_42)" filter="url(#filter0_d_1_42)">
<path id="Vector" d="M27.6042 25.4167H26.4521L26.0438 25.0229C27.4729 23.3604 28.3333 21.2021 28.3333 18.8542C28.3333 13.6188 24.0896 9.375 18.8542 9.375C13.6188 9.375 9.375 13.6188 9.375 18.8542C9.375 24.0896 13.6188 28.3333 18.8542 28.3333C21.2021 28.3333 23.3604 27.4729 25.0229 26.0438L25.4167 26.4521V27.6042L32.7083 34.8813L34.8813 32.7083L27.6042 25.4167ZM18.8542 25.4167C15.2229 25.4167 12.2917 22.4854 12.2917 18.8542C12.2917 15.2229 15.2229 12.2917 18.8542 12.2917C22.4854 12.2917 25.4167 15.2229 25.4167 18.8542C25.4167 22.4854 22.4854 25.4167 18.8542 25.4167Z" fill="#2C2C2C"/>
</g>
</g>
<defs>
<filter id="filter0_d_1_42" x="1" y="5" width="43" height="43" filterUnits="userSpaceOnUse" color-interpolation-filters="sRGB">
<feFlood flood-opacity="0" result="BackgroundImageFix"/>
<feColorMatrix in="SourceAlpha" type="matrix" values="0 0 0 0 0 0 0 0 0 0 0 0 0 0 0 0 0 0 127 0" result="hardAlpha"/>
<feOffset dy="4"/>
<feGaussianBlur stdDeviation="2"/>
<feComposite in2="hardAlpha" operator="out"/>
<feColorMatrix type="matrix" values="0 0 0 0 0 0 0 0 0 0 0 0 0 0 0 0 0 0 0.25 0"/>
<feBlend mode="normal" in2="BackgroundImageFix" result="effect1_dropShadow_1_42"/>
<feBlend mode="normal" in="SourceGraphic" in2="effect1_dropShadow_1_42" result="shape"/>
</filter>
<clipPath id="clip0_1_42">
<rect width="35" height="35" fill="white" transform="translate(5 5)"/>
</clipPath>
</defs>
</svg>
